<?xml version="1.0" encoding="UTF-8" standalone="no"?><!DOCTYPE svg PUBLIC "-//W3C//DTD SVG 1.1//EN" "http://www.w3.org/Graphics/SVG/1.1/DTD/svg11.dtd"><svg width="100%" height="100%" viewBox="0 0 478 576" version="1.1" xmlns="http://www.w3.org/2000/svg" xmlns:xlink="http://www.w3.org/1999/xlink" xml:space="preserve" xmlns:serif="http://www.serif.com/" style="fill-rule:evenodd;clip-rule:evenodd;stroke-linejoin:round;stroke-miterlimit:10;"><g id="poligono"><path d="M47.789,355.156l86.834,85.422l-54.997,17.066c-26.019,-34.753 -32.928,-68.772 -31.837,-102.488Z" style="fill:#2ab05a;fill-rule:nonzero;stroke:#070605;stroke-width:3.17px;"/><path d="M141.637,507.708l-7.012,-67.131l-54.997,17.069c9.009,16.513 34.603,35.228 62.009,50.062Z" style="fill:#99ce95;fill-rule:nonzero;stroke:#070605;stroke-width:3.17px;"/><path d="M204.851,525.558l29.259,-39.506l-92.472,21.656c16.375,10.591 49.062,17.622 63.212,17.85Z" style="fill:#99ce95;fill-rule:nonzero;stroke:#070605;stroke-width:3.17px;"/><path d="M342.969,489.265l-108.859,-3.212l-29.259,39.506c45.338,7.659 105.131,-4.712 138.119,-36.294Z" style="fill:#f5ea34;fill-rule:nonzero;stroke:#070605;stroke-width:3.17px;"/><path d="M134.624,440.577l7.012,67.131l92.475,-21.656l-99.488,-45.475Z" style="fill:#9cc93e;fill-rule:nonzero;stroke:#070605;stroke-width:3.17px;"/><path d="M138.716,353.32l-4.094,87.256l99.488,45.475l-95.394,-132.731Z" style="fill:#1e9346;fill-rule:nonzero;stroke:#070605;stroke-width:3.17px;"/><path d="M47.789,355.156l86.834,85.422l4.094,-87.259l-90.928,1.838Z" style="fill:#17743b;fill-rule:nonzero;stroke:#070605;stroke-width:3.17px;"/><path d="M71.567,255.254c-16.416,30.484 -28.822,62.3 -23.778,99.903l90.928,-1.837l-67.15,-98.066Z" style="fill:#54b464;fill-rule:nonzero;stroke:#070605;stroke-width:3.17px;"/><path d="M189.375,225.23l-117.809,30.025l67.15,98.066l50.659,-128.091Z" style="fill:#9cc93e;fill-rule:nonzero;stroke:#070605;stroke-width:3.17px;"/><path d="M342.969,489.265l1.622,-131.963l-110.481,128.75l108.859,3.213Z" style="fill:#1e9346;fill-rule:nonzero;stroke:#070605;stroke-width:3.17px;"/><path d="M138.716,353.32l95.394,132.731l-2.453,-180.762l-92.941,48.031Z" style="fill:#136132;fill-rule:nonzero;stroke:#070605;stroke-width:3.17px;"/><path d="M189.375,225.23l42.281,80.059l-92.941,48.031l50.659,-128.091Z" style="fill:#f5ea34;fill-rule:nonzero;stroke:#070605;stroke-width:3.17px;"/><path d="M234.11,486.052l110.481,-128.75l-112.934,-52.012l2.453,180.762Z" style="fill:#2ab05a;fill-rule:nonzero;stroke:#070605;stroke-width:3.17px;"/><path d="M342.969,489.265c34.528,-35.956 57.625,-75.5 69.912,-118.431l-68.291,-13.531l-1.622,131.963Z" style="fill:#17743b;fill-rule:nonzero;stroke:#070605;stroke-width:3.17px;"/><path d="M429.264,271.07c3.531,18.012 0.312,47.469 -16.381,99.762l-68.294,-13.531l84.675,-86.231Z" style="fill:#99ce95;fill-rule:nonzero;stroke:#070605;stroke-width:3.17px;"/><path d="M71.567,255.254c23.816,-37.088 50.087,-57.028 111.028,-72.062l6.781,42.037l-117.809,30.025Z" style="fill:#99ce95;fill-rule:nonzero;stroke:#070605;stroke-width:3.17px;"/><path d="M231.657,305.288l37.034,-93.637l-79.316,13.578l42.281,80.059Z" style="fill:#136132;fill-rule:nonzero;stroke:#070605;stroke-width:3.17px;"/><path d="M182.594,183.19l6.781,42.041l79.316,-13.581c-28.381,-12.969 -56.934,-24.028 -86.097,-28.459Z" style="fill:#2ab05a;fill-rule:nonzero;stroke:#070605;stroke-width:3.17px;"/><path d="M231.657,305.288l112.934,52.012l-75.9,-145.65l-37.034,93.637Z" style="fill:#17743b;fill-rule:nonzero;stroke:#070605;stroke-width:3.17px;"/><path d="M429.264,271.07l-67.431,-92.05l-17.244,178.281l84.675,-86.231Z" style="fill:#9cc93e;fill-rule:nonzero;stroke:#070605;stroke-width:3.17px;"/><path d="M268.69,211.65l93.141,-32.628l-17.241,178.281l-75.9,-145.653Z" style="fill:#f5ea34;fill-rule:nonzero;stroke:#070605;stroke-width:3.17px;"/><path d="M304.676,120.661c-6.913,28.137 -18.212,58.166 -35.984,90.988l93.141,-32.628l-57.156,-58.359Z" style="fill:#99ce95;fill-rule:nonzero;stroke:#070605;stroke-width:3.17px;"/><path d="M429.264,271.07c-8.488,-58.45 -19.444,-100.581 -32.872,-126.394l-34.559,34.344l67.431,92.05Z" style="fill:#136132;fill-rule:nonzero;stroke:#070605;stroke-width:3.17px;"/><path d="M304.676,120.661c2.444,-22.481 4.884,-44.963 7.328,-67.444c0.584,-5.375 7.091,-6.8 10.941,-2.85c27.969,28.687 51.947,60.522 73.447,94.309c-30.572,-8.006 -61.144,-16.009 -91.716,-24.016Z" style="fill:#2ab05a;fill-rule:nonzero;stroke:#070605;stroke-width:3.17px;"/><path d="M361.832,179.021l34.559,-34.344l-91.716,-24.016l57.156,58.359Z" style="fill:#1e9346;fill-rule:nonzero;stroke:#070605;stroke-width:3.17px;"/><path d="M268.69,211.65c0,0 -67.094,-30.803 -86.097,-28.459c-19.003,2.344 -84.972,22.578 -111.028,72.062c-26.053,49.488 -23.778,99.903 -23.778,99.903c0,0 2.1,64.234 31.838,102.488c29.741,38.253 57.856,47.644 62.012,50.066c4.156,2.419 47.122,16.012 63.213,17.85c16.094,1.834 81.369,12.844 138.119,-36.294c56.75,-49.141 74.213,-129.491 71.084,-117.969c-3.125,11.522 20.372,-68.375 15.213,-100.228c-5.162,-31.853 -13.994,-88.769 -32.872,-126.391c-18.878,-37.625 -66.922,-88.297 -73.447,-94.312c-6.528,-6.012 -10.606,-0.253 -10.944,2.853c-0.337,3.106 -6.413,63.822 -7.328,67.444c-0.916,3.622 -21.525,68.097 -35.984,90.987Z" style="fill:none;fill-rule:nonzero;stroke:#070605;stroke-width:9.5px;stroke-linejoin:miter;"/><path d="M71.567,255.254l117.809,-30.025l-141.588,129.928c-0.697,-14.097 -0.081,-34.203 6.169,-57.231c4.825,-17.775 11.597,-32.106 17.609,-42.672Z" style="fill:#9cc93e;fill-rule:nonzero;stroke:#070605;stroke-width:3.17px;"/><path d="M138.716,353.32l-90.928,1.837l141.588,-129.928l-50.659,128.091Z" style="fill:#54b464;fill-rule:nonzero;stroke:#070605;stroke-width:3.17px;"/></g></svg>